<svg id="レイヤー_1" data-name="レイヤー 1" xmlns="http://www.w3.org/2000/svg" width="32" height="32" viewBox="-7 -6 45 45">
  <rect width="32" height="32" fill="none"/>
  <g>
    <path d="M25.86,9a.14.14,0,0,1,.14.14v.11l1,18.63a.14.14,0,0,1-.14.12H5.14A.14.14,0,0,1,5,27.88L6,9.25V9.14A.14.14,0,0,1,6.14,9H25.86m0-2H6.14A2.14,2.14,0,0,0,4,9.14L3,27.86A2.14,2.14,0,0,0,5.14,30H26.86A2.14,2.14,0,0,0,29,27.86L28,9.14A2.14,2.14,0,0,0,25.86,7Z" fill="#001d36"/>
    <path d="M22,14H20V4.79A.79.79,0,0,0,19.21,4H12.79a.79.79,0,0,0-.79.79V14H10V4.79A2.79,2.79,0,0,1,12.79,2h6.42A2.79,2.79,0,0,1,22,4.79Z" fill="#001d36"/>
    <circle cx="11" cy="13" r="2" fill="#001d36"/>
    <circle cx="21" cy="13" r="2" fill="#001d36"/>
  </g>
</svg>
